<svg width="47" height="56" viewBox="0 0 47 56" fill="none" xmlns="http://www.w3.org/2000/svg">
<path d="M37.2032 28.9327C37.0376 28.7801 36.8405 28.6591 36.6232 28.5767C36.4059 28.4943 36.1729 28.4522 35.9377 28.4528H34.6742V25.7334C34.6737 25.3008 34.4852 24.8861 34.1503 24.5802C33.8153 24.2744 33.3612 24.1023 32.8875 24.1018H7.17627C5.78182 24.1018 4.44448 24.6077 3.45846 25.5082C2.47243 26.4086 1.91848 27.6299 1.91846 28.9033V47.5817C1.91848 48.8552 2.47243 50.0765 3.45846 50.9769C4.44448 51.8774 5.78182 52.3833 7.17627 52.3833H35.8673C36.3399 52.3824 36.7929 52.211 37.1276 51.9063C37.4624 51.6016 37.6516 51.1884 37.654 50.7569L37.7243 30.09C37.7257 29.8752 37.6804 29.6623 37.591 29.4636C37.5015 29.2649 37.3697 29.0844 37.2032 28.9327ZM35.2737 50.2078H7.17627C6.41362 50.2078 5.68221 49.9311 5.14293 49.4386C4.60365 48.9462 4.30069 48.2782 4.30069 47.5817V28.9033C4.30069 28.2069 4.60365 27.5389 5.14293 27.0464C5.68221 26.554 6.41362 26.2773 7.17627 26.2773H32.292V28.4528H7.27849V30.6283H35.3402L35.2737 50.2078Z" fill="black"/>
<path d="M29.3135 40.4182C29.3135 39.2167 30.2875 38.2427 31.489 38.2427H31.9024C33.1039 38.2427 34.0779 39.2167 34.0779 40.4182C34.0779 41.6197 33.1039 42.5937 31.9024 42.5937H31.489C30.2875 42.5937 29.3135 41.6197 29.3135 40.4182Z" fill="black"/>
<g clip-path="url(#clip0)">
<path d="M39.1764 7.70923L23.7964 21.7545" stroke="black" stroke-width="2" stroke-linecap="round" stroke-linejoin="round"/>
<path d="M26.3599 7.70923H39.1766V19.4137" stroke="black" stroke-width="2" stroke-linecap="round" stroke-linejoin="round"/>
</g>
<defs>
<clipPath id="clip0">
<rect width="30.7601" height="28.0906" fill="white" transform="translate(16.1064 0.686523)"/>
</clipPath>
</defs>
</svg>
