<svg width="794" height="628" viewBox="0 0 794 628" fill="none" xmlns="http://www.w3.org/2000/svg">
<path d="M390.752 142.685H387.469V52.3077C387.469 38.4349 381.983 25.1302 372.219 15.3206C362.455 5.511 349.212 1.72984e-05 335.403 3.31978e-10H144.814C137.976 -2.44716e-05 131.206 1.35293 124.889 3.98161C118.572 6.6103 112.833 10.4632 107.998 15.3204C103.163 20.1776 99.3279 25.944 96.7114 32.2902C94.0948 38.6365 92.7481 45.4383 92.748 52.3075V548.122C92.748 554.991 94.0947 561.793 96.7113 568.139C99.3278 574.486 103.163 580.252 107.998 585.109C112.832 589.967 118.572 593.82 124.889 596.448C131.206 599.077 137.976 600.43 144.814 600.43H335.403C342.24 600.43 349.011 599.077 355.328 596.448C361.644 593.82 367.384 589.967 372.219 585.109C377.054 580.252 380.889 574.486 383.505 568.14C386.122 561.793 387.469 554.992 387.469 548.122V207.016H390.752V142.685Z" fill="#3F3D56"/>
<path d="M337.112 14.8458H312.233C313.378 17.6638 313.814 20.7212 313.505 23.7487C313.196 26.7761 312.151 29.6808 310.461 32.2067C308.771 34.7327 306.489 36.8024 303.816 38.2335C301.142 39.6647 298.16 40.4134 295.13 40.4136H185.944C182.915 40.4134 179.932 39.6647 177.259 38.2335C174.585 36.8024 172.303 34.7327 170.613 32.2067C168.924 29.6808 167.878 26.7761 167.569 23.7487C167.26 20.7212 167.697 17.6638 168.841 14.8458H145.604C135.292 14.8458 125.403 18.9613 118.111 26.287C110.819 33.6127 106.722 43.5484 106.722 53.9085V548.996C106.722 554.125 107.728 559.205 109.682 563.944C111.636 568.684 114.5 572.99 118.111 576.617C121.721 580.245 126.008 583.122 130.725 585.085C135.442 587.048 140.498 588.058 145.604 588.058H337.112C347.424 588.058 357.314 583.943 364.605 576.617C371.897 569.292 375.994 559.356 375.994 548.996V53.9086C375.994 48.7788 374.988 43.6992 373.034 38.9599C371.08 34.2206 368.216 29.9144 364.605 26.287C360.995 22.6597 356.709 19.7824 351.991 17.8193C347.274 15.8562 342.218 14.8458 337.112 14.8458H337.112ZM332.932 244.52C332.924 247.201 331.861 249.77 329.974 251.666C328.087 253.562 325.529 254.63 322.861 254.638H274.183C271.514 254.63 268.957 253.562 267.07 251.666C265.183 249.77 264.12 247.201 264.112 244.52V241.99C264.12 239.309 265.183 236.74 267.07 234.845C268.957 232.949 271.514 231.88 274.183 231.872H322.861C325.529 231.88 328.087 232.949 329.974 234.845C331.861 236.74 332.924 239.309 332.932 241.99V244.52ZM338.387 199.832C338.379 202.513 337.316 205.082 335.429 206.978C333.542 208.874 330.985 209.942 328.316 209.95H153.748C151.079 209.942 148.522 208.874 146.635 206.978C144.748 205.082 143.685 202.513 143.677 199.832V197.302C143.685 194.621 144.748 192.052 146.635 190.156C148.522 188.261 151.079 187.192 153.748 187.184H328.316C330.985 187.192 333.542 188.261 335.429 190.156C337.316 192.052 338.379 194.621 338.387 197.302V199.832ZM338.387 155.144C338.379 157.825 337.316 160.394 335.429 162.29C333.542 164.185 330.985 165.254 328.316 165.262H153.748C151.079 165.254 148.522 164.185 146.635 162.29C144.748 160.394 143.685 157.825 143.677 155.144V152.614C143.685 149.933 144.748 147.364 146.635 145.468C148.522 143.572 151.079 142.504 153.748 142.496H328.316C330.985 142.504 333.542 143.572 335.429 145.468C337.316 147.364 338.379 149.933 338.387 152.614V155.144ZM338.387 110.456C338.379 113.137 337.316 115.706 335.429 117.601C333.542 119.497 330.985 120.566 328.316 120.574H153.748C151.079 120.566 148.522 119.497 146.635 117.601C144.748 115.706 143.685 113.137 143.677 110.456V107.926C143.685 105.245 144.748 102.676 146.635 100.78C148.522 98.8843 151.079 97.8158 153.748 97.808H328.316C330.985 97.8158 333.542 98.8843 335.429 100.78C337.316 102.676 338.379 105.245 338.387 107.926V110.456Z" fill="white"/>
<path d="M157.525 204.891C160.769 204.891 163.4 202.248 163.4 198.989C163.4 195.729 160.769 193.086 157.525 193.086C154.28 193.086 151.65 195.729 151.65 198.989C151.65 202.248 154.28 204.891 157.525 204.891Z" fill="white"/>
<path d="M176.828 204.891C180.072 204.891 182.703 202.248 182.703 198.989C182.703 195.729 180.072 193.086 176.828 193.086C173.583 193.086 170.953 195.729 170.953 198.989C170.953 202.248 173.583 204.891 176.828 204.891Z" fill="white"/>
<path d="M196.131 204.891C199.376 204.891 202.006 202.248 202.006 198.989C202.006 195.729 199.376 193.086 196.131 193.086C192.886 193.086 190.256 195.729 190.256 198.989C190.256 202.248 192.886 204.891 196.131 204.891Z" fill="white"/>
<path d="M215.434 204.891C218.679 204.891 221.309 202.248 221.309 198.989C221.309 195.729 218.679 193.086 215.434 193.086C212.19 193.086 209.559 195.729 209.559 198.989C209.559 202.248 212.19 204.891 215.434 204.891Z" fill="white"/>
<path d="M278.38 249.579C281.624 249.579 284.254 246.936 284.254 243.677C284.254 240.417 281.624 237.775 278.38 237.775C275.135 237.775 272.505 240.417 272.505 243.677C272.505 246.936 275.135 249.579 278.38 249.579Z" fill="white"/>
<path d="M297.683 249.579C300.927 249.579 303.558 246.936 303.558 243.677C303.558 240.417 300.927 237.775 297.683 237.775C294.438 237.775 291.808 240.417 291.808 243.677C291.808 246.936 294.438 249.579 297.683 249.579Z" fill="white"/>
<path d="M316.986 249.579C320.23 249.579 322.861 246.936 322.861 243.677C322.861 240.417 320.23 237.775 316.986 237.775C313.741 237.775 311.111 240.417 311.111 243.677C311.111 246.936 313.741 249.579 316.986 249.579Z" fill="white"/>
<path d="M339.738 320.151H140.648C135.97 320.151 131.484 322.017 128.177 325.34C124.87 328.663 123.012 333.169 123.012 337.868V435.32C123.012 440.019 124.87 444.526 128.177 447.849C131.484 451.171 135.97 453.038 140.648 453.038H339.738C344.415 453.038 348.901 451.171 352.208 447.849C355.515 444.526 357.374 440.019 357.374 435.32V337.869C357.374 333.169 355.516 328.663 352.208 325.34C348.901 322.017 344.415 320.151 339.738 320.151H339.738ZM135.722 332.237C136.115 332.166 145.437 330.572 153.157 335.238C160.876 339.904 163.842 348.926 163.964 349.308L164.276 350.281L163.274 350.459C161.845 350.683 160.4 350.79 158.954 350.778C154.366 350.866 149.837 349.719 145.839 347.457C138.12 342.792 135.154 333.77 135.032 333.388L134.72 332.415L135.722 332.237ZM178.939 422.715H143.43C140.84 422.715 138.356 421.681 136.525 419.841C134.693 418.002 133.665 415.506 133.665 412.904C133.665 410.302 134.693 407.807 136.525 405.967C138.356 404.127 140.84 403.094 143.43 403.094H178.939C181.529 403.094 184.013 404.127 185.844 405.967C187.675 407.807 188.704 410.302 188.704 412.904C188.704 415.506 187.675 418.002 185.844 419.841C184.013 421.681 181.529 422.715 178.939 422.715ZM340.507 420.931C340.498 423.767 339.373 426.484 337.377 428.49C335.381 430.495 332.677 431.625 329.854 431.633H303.222C300.399 431.625 297.694 430.495 295.698 428.49C293.702 426.484 292.577 423.767 292.569 420.931V404.878C292.577 402.042 293.702 399.324 295.698 397.319C297.694 395.314 300.399 394.184 303.222 394.175H329.854C332.677 394.184 335.381 395.314 337.377 397.319C339.373 399.324 340.498 402.042 340.507 404.878L340.507 420.931Z" fill="#02C4D0"/>
<path d="M311.809 417.623H301.101C300.336 417.623 299.603 417.928 299.062 418.471C298.521 419.015 298.218 419.751 298.218 420.519C298.218 421.288 298.521 422.024 299.062 422.567C299.603 423.111 300.336 423.416 301.101 423.416H311.809C312.573 423.416 313.307 423.111 313.847 422.567C314.388 422.024 314.692 421.288 314.692 420.519C314.692 419.751 314.388 419.015 313.847 418.471C313.307 417.928 312.573 417.623 311.809 417.623Z" fill="#3F3D56"/>
<path d="M331.577 417.623H320.869C320.105 417.623 319.371 417.928 318.831 418.471C318.29 419.015 317.986 419.751 317.986 420.519C317.986 421.288 318.29 422.024 318.831 422.567C319.371 423.111 320.105 423.416 320.869 423.416H331.577C332.342 423.416 333.075 423.111 333.616 422.567C334.156 422.024 334.46 421.288 334.46 420.519C334.46 419.751 334.156 419.015 333.616 418.471C333.075 417.928 332.342 417.623 331.577 417.623Z" fill="#3F3D56"/>
<path d="M311.807 409.447H301.099C300.334 409.447 299.601 409.752 299.06 410.295C298.52 410.839 298.216 411.575 298.216 412.343C298.216 413.112 298.52 413.848 299.06 414.391C299.601 414.935 300.334 415.24 301.099 415.24H311.807C312.572 415.24 313.305 414.935 313.846 414.391C314.386 413.848 314.69 413.112 314.69 412.343C314.69 411.575 314.386 410.839 313.846 410.295C313.305 409.752 312.572 409.447 311.807 409.447Z" fill="#3F3D56"/>
<path d="M331.576 409.447H320.868C320.103 409.447 319.37 409.752 318.829 410.295C318.288 410.839 317.985 411.575 317.985 412.343C317.985 413.112 318.288 413.848 318.829 414.391C319.37 414.935 320.103 415.24 320.868 415.24H331.576C332.34 415.24 333.074 414.935 333.614 414.391C334.155 413.848 334.459 413.112 334.459 412.343C334.459 411.575 334.155 410.839 333.614 410.295C333.074 409.752 332.34 409.447 331.576 409.447H331.576Z" fill="#3F3D56"/>
<path d="M311.807 401.437H301.099C300.334 401.437 299.601 401.742 299.06 402.285C298.52 402.828 298.216 403.565 298.216 404.333C298.216 405.101 298.52 405.838 299.06 406.381C299.601 406.924 300.334 407.229 301.099 407.229H311.807C312.572 407.229 313.305 406.924 313.846 406.381C314.386 405.838 314.69 405.101 314.69 404.333C314.69 403.565 314.386 402.828 313.846 402.285C313.305 401.742 312.572 401.437 311.807 401.437Z" fill="#3F3D56"/>
<path d="M331.576 401.437H320.868C320.103 401.437 319.37 401.742 318.829 402.285C318.288 402.828 317.985 403.565 317.985 404.333C317.985 405.101 318.288 405.838 318.829 406.381C319.37 406.924 320.103 407.229 320.868 407.229H331.576C332.34 407.229 333.074 406.924 333.614 406.381C334.155 405.838 334.459 405.101 334.459 404.333C334.459 403.565 334.155 402.828 333.614 402.285C333.074 401.742 332.34 401.437 331.576 401.437H331.576Z" fill="#3F3D56"/>
<path d="M477.63 356.861H451.662V382.95H477.63V356.861Z" fill="#E6E6E6"/>
<path d="M421.057 372.7H463.719V415.561H421.057V372.7ZM461.864 374.564H422.912V413.697H461.864V374.564Z" fill="#3F3D56"/>
<path d="M25.9683 141.626H0V167.715H25.9683V141.626Z" fill="#E6E6E6"/>
<path d="M56.5738 151.875H13.9116V109.015H56.5738V151.875ZM15.7665 150.012H54.7189V110.878H15.7665V150.012Z" fill="#3F3D56"/>
<path d="M605.688 616.276H594.318L588.909 572.215H605.69L605.688 616.276Z" fill="#FFB8B8"/>
<path d="M586.196 613.011H608.124V626.882H572.39C572.39 623.203 573.844 619.675 576.433 617.074C579.023 614.473 582.534 613.011 586.196 613.011Z" fill="#2F2E41"/>
<path d="M662.262 616.276H650.892L645.483 572.215H662.264L662.262 616.276Z" fill="#FFB8B8"/>
<path d="M642.77 613.011H664.698V626.882H628.963C628.963 623.203 630.418 619.675 633.007 617.074C635.596 614.473 639.108 613.011 642.77 613.011Z" fill="#2F2E41"/>
<path d="M548.65 458.704C547.832 457.493 547.288 456.117 547.057 454.672C546.826 453.228 546.912 451.749 547.311 450.342C547.71 448.935 548.411 447.632 549.365 446.526C550.319 445.421 551.503 444.539 552.833 443.942L591.485 336.915L610.504 347.343L566.372 449.622C567.221 451.933 567.197 454.477 566.304 456.771C565.411 459.066 563.711 460.952 561.526 462.071C559.342 463.191 556.825 463.466 554.451 462.846C552.078 462.225 550.014 460.751 548.65 458.704Z" fill="#FFB8B8"/>
<path d="M656.454 478.815C655.191 478.087 654.101 477.09 653.263 475.893C652.425 474.697 651.857 473.33 651.602 471.889C651.346 470.449 651.408 468.969 651.782 467.555C652.157 466.141 652.836 464.827 653.771 463.705L641.797 350.489L663.442 351.482L668.418 462.845C670.19 464.548 671.278 466.846 671.477 469.301C671.676 471.757 670.971 474.2 669.497 476.169C668.022 478.137 665.88 479.494 663.476 479.981C661.072 480.469 658.574 480.054 656.454 478.815V478.815Z" fill="#FFB8B8"/>
<path d="M621.925 317.091C634.506 317.091 644.704 306.845 644.704 294.206C644.704 281.567 634.506 271.321 621.925 271.321C609.345 271.321 599.146 281.567 599.146 294.206C599.146 306.845 609.345 317.091 621.925 317.091Z" fill="#FFB8B8"/>
<path d="M656.309 453.066H587.635L587.718 452.529C587.841 451.727 599.957 371.99 591.021 345.903C590.124 343.34 590.203 340.534 591.242 338.025C592.282 335.516 594.208 333.483 596.65 332.315H596.65C609.423 326.272 633.94 318.832 654.634 336.889C657.679 339.59 660.057 342.966 661.579 346.749C663.102 350.533 663.728 354.62 663.407 358.689L656.309 453.066Z" fill="#CCCCCC"/>
<path d="M600.825 383.773L569.907 377.472L584.399 342.969C585.267 339.627 587.418 336.768 590.381 335.017C593.344 333.266 596.877 332.768 600.206 333.631C603.534 334.495 606.386 336.649 608.136 339.622C609.885 342.595 610.39 346.143 609.538 349.489L600.825 383.773Z" fill="#CCCCCC"/>
<path d="M640.422 395.474L638.564 352.668C637.154 344.621 641.739 337.014 648.791 335.771C655.844 334.532 662.732 340.113 664.148 348.219L671.134 388.217L640.422 395.474Z" fill="#CCCCCC"/>
<path d="M654.024 447.941C665.074 490.221 666.28 543.976 663.299 602.612L648.46 600.748L621.564 488.938L606.725 602.612L590.031 601.68C585.044 540.157 580.188 487.34 588.176 452.6L654.024 447.941Z" fill="#2F2E41"/>
<path d="M636.934 311.892C632.685 316.44 624.793 313.999 624.239 307.786C624.196 307.303 624.199 306.818 624.249 306.336C624.534 303.584 626.117 301.086 625.738 298.18C625.652 297.457 625.384 296.768 624.959 296.178C621.572 291.622 613.623 298.215 610.427 294.091C608.468 291.563 610.771 287.581 609.268 284.755C607.283 281.024 601.404 282.865 597.717 280.822C593.615 278.549 593.861 272.226 596.561 268.38C599.854 263.69 605.627 261.188 611.329 260.827C617.03 260.466 622.693 262.015 628.016 264.099C634.064 266.467 640.061 269.739 643.783 275.082C648.309 281.579 648.744 290.314 646.481 297.911C645.104 302.533 640.404 308.178 636.934 311.892Z" fill="#2F2E41"/>
<path d="M793.073 628H439.719C439.473 628 439.237 627.902 439.063 627.727C438.889 627.552 438.791 627.315 438.791 627.068C438.791 626.821 438.889 626.584 439.063 626.409C439.237 626.235 439.473 626.136 439.719 626.136H793.073C793.319 626.136 793.554 626.235 793.728 626.409C793.902 626.584 794 626.821 794 627.068C794 627.315 793.902 627.552 793.728 627.727C793.554 627.902 793.319 628 793.073 628Z" fill="#3F3D56"/>
</svg>
