<svg width="823" height="550" viewBox="0 0 823 550" fill="none" xmlns="http://www.w3.org/2000/svg">
<g clip-path="url(#clip0)">
<path opacity="0.5" d="M204.232 360.202C154.472 340.267 97.5782 323.392 51.0881 352.04C45.196 355.671 39.3902 360.242 36.2155 367.043C27.8302 384.938 41.1587 408.144 34.6626 427.059C28.1666 445.974 3.7182 455.496 5.71963 475.701C6.24586 480.982 8.71314 485.764 11.6204 489.885C29.8316 515.681 63.2175 518.292 91.4359 511.89C119.654 505.489 147.251 492.215 175.979 493.886C203.585 495.536 228.982 510.89 254.276 523.813C296.918 545.659 346.721 561.333 389.329 539.377C408.852 529.315 424.992 512.18 443.678 500.217C468.86 484.244 497.805 478.086 526.237 482.653C545.216 485.754 563.332 493.556 581.906 498.937C624.091 511.15 668.122 510.75 711.593 510.27C719.685 510.18 727.906 510.07 735.662 507.389C747.144 503.388 756.617 494.176 765.735 485.163C777.718 473.33 790.339 460.327 794.204 442.633C798.767 421.627 789.321 399.302 775.311 385.028C761.301 370.754 743.392 362.952 725.914 355.43C721.6 353.59 716.993 351.72 712.577 353.11C709.678 354.03 707.237 356.271 705.071 358.681C692.666 372.525 682.184 395.941 665.267 392.18C659.228 390.839 654.285 385.968 649.506 381.467C623.988 357.461 589.661 338.926 558.864 352.19C536.339 361.892 520.44 386.808 497.613 395.601C481.377 401.862 463.736 399.152 446.654 400.372C421.809 402.132 397.628 412.315 372.748 411.695C309.307 410.114 256.45 339.776 193.267 346.478C188.315 346.998 182.915 348.319 179.878 352.86" fill="#02C4D0"/>
<path d="M124.226 293.295C124.226 293.295 71.5078 330.194 168.724 387.029C168.724 387.029 190.144 340.917 166.463 303.317C161.868 295.991 155.115 290.874 147.483 288.935C139.851 286.995 131.871 288.369 125.055 292.795L124.226 293.295Z" fill="#02C4D0"/>
<path d="M124.856 292.524C124.856 292.524 169.992 332.535 168.732 386.998" stroke="#535461" stroke-miterlimit="10"/>
<path d="M791.21 262.557C801.89 307.838 756.332 436.841 756.332 436.841C756.332 436.841 660.471 352.69 649.782 307.408C646.986 296.551 646.09 285.156 647.146 273.892C648.202 262.628 651.19 251.722 655.933 241.816C660.676 231.909 667.079 223.202 674.766 216.205C682.453 209.209 691.268 204.065 700.694 201.075C710.119 198.085 719.966 197.309 729.654 198.794C739.341 200.279 748.676 203.994 757.108 209.721C765.54 215.448 772.899 223.071 778.754 232.143C784.609 241.215 788.841 251.552 791.202 262.547L791.21 262.557Z" fill="#02C4D0"/>
<path opacity="0.1" d="M791.21 262.557C801.89 307.838 756.332 436.841 756.332 436.841C756.332 436.841 660.471 352.69 649.782 307.408C646.986 296.551 646.09 285.156 647.146 273.892C648.202 262.628 651.19 251.722 655.933 241.816C660.676 231.909 667.079 223.202 674.766 216.205C682.453 209.209 691.268 204.065 700.694 201.075C710.119 198.085 719.966 197.309 729.654 198.794C739.341 200.279 748.676 203.994 757.108 209.721C765.54 215.448 772.899 223.071 778.754 232.143C784.609 241.215 788.841 251.552 791.202 262.547L791.21 262.557Z" fill="black"/>
<path d="M701.543 203.252C701.543 203.252 761.215 307.698 756.754 437.091" stroke="#535461" stroke-miterlimit="10"/>
<path d="M806.436 345.318C806.436 345.318 752.329 311.189 759.179 437.171C759.179 437.171 804.314 435.301 820.334 392.61C823.467 384.307 823.863 374.96 821.447 366.341C819.032 357.722 813.973 350.43 807.23 345.848L806.436 345.318Z" fill="#02C4D0"/>
<path d="M807.325 345.538C807.325 345.538 800.337 410.935 759.179 437.171" stroke="#535461" stroke-miterlimit="10"/>
<path d="M14.2859 331.274C14.2859 331.274 -38.4586 368.164 58.7658 424.968C58.7658 424.968 80.1863 378.856 56.5056 341.257C51.9102 333.931 45.157 328.814 37.5254 326.874C29.8937 324.935 21.9136 326.308 15.0968 330.734L14.2859 331.274Z" fill="#02C4D0"/>
<path d="M14.8899 330.504C14.8899 330.504 60.0255 370.514 58.766 424.978" stroke="#535461" stroke-miterlimit="10"/>
<path d="M672.401 379.296H616.974C618.249 376.322 618.911 373.045 618.906 369.724V77.0896C618.906 71.3833 616.951 65.9108 613.471 61.8758C609.991 57.8409 605.271 55.5741 600.35 55.5741H171.312C166.39 55.5741 161.67 57.8409 158.19 61.8758C154.71 65.9108 152.755 71.3833 152.755 77.0896V369.734C152.751 373.055 153.412 376.332 154.688 379.306H97.302C96.6552 379.306 96.0148 379.455 95.4176 379.743C94.8203 380.03 94.2781 380.452 93.8219 380.984C93.3658 381.516 93.0047 382.147 92.7596 382.841C92.5144 383.535 92.39 384.278 92.3934 385.028V389.619C92.3934 398.06 95.2855 406.156 100.433 412.125C105.581 418.094 112.564 421.447 119.844 421.447H649.859C657.14 421.447 664.122 418.094 669.27 412.125C674.418 406.156 677.31 398.06 677.31 389.619V385.028C677.315 384.277 677.191 383.533 676.946 382.838C676.702 382.142 676.341 381.51 675.885 380.978C675.428 380.445 674.886 380.022 674.288 379.733C673.69 379.445 673.049 379.296 672.401 379.296ZM330.874 397.501L326.094 391.249H444.092L438.83 397.511L330.874 397.501Z" fill="url(#paint0_linear)"/>
<path d="M593.544 59.7152H178.075C166.993 59.7152 158.009 70.1317 158.009 82.9811V364.523C158.009 377.372 166.993 387.789 178.075 387.789H593.544C604.626 387.789 613.61 377.372 613.61 364.523V82.9811C613.61 70.1317 604.626 59.7152 593.544 59.7152Z" fill="#535461"/>
<path d="M603.059 107.537H167.602V375.556H603.059V107.537Z" fill="white"/>
<path d="M385.335 88.6326C387.455 88.6326 389.174 86.6398 389.174 84.1815C389.174 81.7232 387.455 79.7303 385.335 79.7303C383.215 79.7303 381.496 81.7232 381.496 84.1815C381.496 86.6398 383.215 88.6326 385.335 88.6326Z" fill="white"/>
<path d="M452.564 376.106L437.605 393.9H332.133L318.615 376.106H103.815C102.543 376.106 101.323 376.692 100.424 377.735C99.5242 378.778 99.0188 380.192 99.0188 381.667V386.148C99.0188 394.399 101.845 402.311 106.877 408.145C111.908 413.979 118.733 417.256 125.848 417.256H643.855C647.378 417.256 650.867 416.452 654.122 414.888C657.377 413.325 660.335 411.034 662.826 408.145C665.318 405.256 667.294 401.827 668.642 398.053C669.991 394.279 670.685 390.233 670.685 386.148V381.667C670.685 380.192 670.179 378.778 669.28 377.735C668.38 376.692 667.16 376.106 665.888 376.106H452.564Z" fill="#535461"/>
<path d="M223.237 124.222V352.2H548.382" stroke="#535461" stroke-width="2" stroke-miterlimit="10"/>
<path opacity="0.5" d="M285.574 283.252H252.007V343.307H285.574V283.252Z" fill="#02C4D0"/>
<path opacity="0.7" d="M343.124 229.869H309.557V343.307H343.124V229.869Z" fill="#02C4D0"/>
<path opacity="0.5" d="M400.673 262.117H367.106V343.297H400.673V262.117Z" fill="#02C4D0"/>
<path opacity="0.8" d="M458.223 212.074H424.656V343.307H458.223V212.074Z" fill="#02C4D0"/>
<path d="M515.773 165.362H482.206V343.297H515.773V165.362Z" fill="#02C4D0"/>
<path d="M268.312 246.553L326.819 185.387L384.369 243.212L440.961 173.154L498.51 145.347" stroke="#535461" stroke-width="2" stroke-miterlimit="10"/>
<path d="M268.312 254.335C272.019 254.335 275.023 250.851 275.023 246.553C275.023 242.255 272.019 238.771 268.312 238.771C264.605 238.771 261.6 242.255 261.6 246.553C261.6 250.851 264.605 254.335 268.312 254.335Z" fill="#02C4D0"/>
<path d="M383.411 249.884C387.118 249.884 390.123 246.399 390.123 242.102C390.123 237.804 387.118 234.32 383.411 234.32C379.704 234.32 376.699 237.804 376.699 242.102C376.699 246.399 379.704 249.884 383.411 249.884Z" fill="#02C4D0"/>
<path d="M441.918 180.936C445.625 180.936 448.63 177.452 448.63 173.154C448.63 168.856 445.625 165.372 441.918 165.372C438.211 165.372 435.207 168.856 435.207 173.154C435.207 177.452 438.211 180.936 441.918 180.936Z" fill="#02C4D0"/>
<path d="M326.819 192.049C330.526 192.049 333.531 188.565 333.531 184.267C333.531 179.969 330.526 176.485 326.819 176.485C323.112 176.485 320.107 179.969 320.107 184.267C320.107 188.565 323.112 192.049 326.819 192.049Z" fill="#02C4D0"/>
<path d="M498.51 153.129C502.217 153.129 505.222 149.645 505.222 145.347C505.222 141.049 502.217 137.565 498.51 137.565C494.803 137.565 491.799 141.049 491.799 145.347C491.799 149.645 494.803 153.129 498.51 153.129Z" fill="#02C4D0"/>
<path d="M748.214 385.848C744.677 384.498 739.432 382.938 735.274 383.488C731.314 381.817 722.006 377.486 715.648 370.964C715.831 364.552 715.69 358.133 715.225 351.74C711.973 308.859 719.288 280.591 719.288 280.591C719.288 280.591 725.034 259.026 724.404 241.131C724.775 241.942 724.982 242.422 724.982 242.422C725.482 226.988 730.02 211.014 733.419 201.061C733.549 201.018 733.675 200.965 733.799 200.901L737.594 190.459C737.897 189.849 738.137 189.202 738.31 188.528L738.923 186.878L738.742 186.788C738.802 186.518 738.863 186.227 738.923 185.937C741.347 174.044 743.236 145.837 743.236 145.837C749.741 116.15 734.299 97.8249 734.299 97.8249L708.091 71.6783C708.221 72.0186 708.308 72.3792 708.349 72.7486L708.134 72.5285C707.763 71.2982 707.357 69.8278 706.96 68.1474C707.885 67.3778 708.751 66.5177 709.549 65.5767C712.528 62.3138 714.578 58.0738 715.423 53.4236C715.932 49.7872 716.062 46.0932 715.812 42.4208L715.38 29.8076C715.361 27.3391 715.144 24.878 714.733 22.4558C712.758 12.4532 703.915 5.45142 695.038 4.99131C692.214 4.97224 689.391 5.14592 686.584 5.51144C684.288 5.73009 681.984 5.78687 679.682 5.68148C679.42 5.69758 679.161 5.61705 678.941 5.45143C678.741 5.22039 678.626 4.90831 678.621 4.5812C678.576 3.99578 678.634 3.40581 678.791 2.84701C678.948 2.28821 679.201 1.77223 679.536 1.33037C679.883 0.977248 680.288 0.708546 680.726 0.540177L680.096 0.710218C680.407 0.426338 680.757 0.206422 681.132 0.0600586C678.831 0.529156 676.618 1.46 674.593 2.81076C674.035 3.23583 673.522 3.7361 673.066 4.30113C671.859 5.52838 671.075 7.21886 670.857 9.06235C669.776 8.00427 668.97 6.61921 668.528 5.06133C668.391 4.4243 668.391 3.75787 668.528 3.12084C668.373 3.34089 668.223 3.56761 668.079 3.801C668.079 3.73098 668.079 3.66097 668.079 3.59096C666.412 5.967 665.232 8.75105 664.629 11.733C664.396 11.4101 664.222 11.0369 664.115 10.6351C664.009 10.2332 663.972 9.81084 664.007 9.39244C663.878 9.86256 663.757 10.3327 663.645 10.8028C663.606 10.491 663.606 10.1743 663.645 9.86254C662.629 13.4686 662.171 17.2544 662.291 21.0454C662.291 24.8264 663.74 30.7179 667.234 32.0482C667.415 32.1182 667.596 32.1682 667.786 32.2182C665.821 35.7573 664.644 39.8064 664.361 44.0025C664.078 48.1987 664.697 52.4107 666.164 56.261C667.63 60.1113 669.897 63.4796 672.763 66.0638C675.628 68.6481 679.002 70.3676 682.581 71.0681C682.639 71.5282 682.693 72.0117 682.745 72.5185H682.883C682.978 73.5188 683.056 74.619 683.107 75.7393C682.226 76.741 681.26 77.6389 680.226 78.42C677.293 80.4304 674.021 81.6857 670.633 82.1009C666.587 82.469 662.655 83.833 659.099 86.102C654.915 88.8126 650.299 92.7636 648.85 97.5649C646.435 105.567 633.132 118.02 624.212 119.57L621.037 119.36L620.804 119.28V119.35L620.028 119.3H619.985H619.778V119.35L618.975 119.3C618.975 119.3 618.898 119.731 618.786 120.491C614.3 118.7 604.767 113.739 592.362 100.686C578.559 86.152 559.882 89.0127 552.678 90.8432C552.433 90.9059 552.21 91.0537 552.04 91.267C551.869 91.4803 551.758 91.7489 551.723 92.0369C551.687 92.3249 551.728 92.6187 551.84 92.879C551.952 93.1394 552.13 93.3538 552.35 93.4939C555.258 95.3443 559.761 98.035 561.84 98.3351C561.84 98.3351 557.526 103.566 562.116 106.337C562.667 106.646 563.28 106.773 563.889 106.704C564.497 106.635 565.078 106.373 565.567 105.947C567.792 104.057 573.978 108.338 582.941 110.568C582.941 110.568 608.235 140.916 620.796 145.577C621.085 146.24 621.405 146.884 621.753 147.508L622.53 147.438V147.508H622.857L622.952 148.508C622.952 148.508 642.483 147.318 648.833 139.095C649.282 138.629 649.695 138.117 650.066 137.565L643.277 236.59H643.338L643.277 237.531H648.272C648.7 249.709 648.246 261.909 646.918 274V338.556C646.918 338.556 646.659 344.238 656.839 352.56C667.512 361.175 677.797 370.42 687.654 380.257L688.887 381.497C687.015 401.252 683.099 438.072 679.829 439.442L681.848 439.852C678.397 444.923 668.597 458.857 665.612 459.227C661.954 459.697 659.513 466.299 665.612 467.709C677.79 470.153 690.312 468.722 701.845 463.568C702.995 463.042 703.96 462.084 704.585 460.848C705.211 459.611 705.461 458.167 705.296 456.746L704.114 446.344C704.337 446.488 704.518 446.708 704.631 446.974C705.442 449.805 704.631 443.203 704.631 443.203C707.973 430.748 710.599 418.051 712.49 405.193L724.568 417.296C724.568 417.296 724.809 416.946 725.232 416.296C728.191 424.078 733.471 440.002 732.289 451.665C730.667 467.669 746.092 453.546 744.479 444.123C743.167 436.501 749.034 404.193 751.32 392.11C751.566 390.805 751.384 389.441 750.81 388.283C750.236 387.126 749.31 386.258 748.214 385.848Z" fill="url(#paint1_linear)"/>
<path d="M621.995 124.452C621.995 124.452 610.487 122.151 593.423 104.206C579.922 90.0129 561.71 92.8036 554.688 94.5941C554.449 94.654 554.231 94.7975 554.064 95.0051C553.897 95.2128 553.789 95.4747 553.755 95.7556C553.72 96.0366 553.76 96.3232 553.87 96.5769C553.98 96.8306 554.154 97.0392 554.369 97.1747C557.207 98.9752 561.607 101.606 563.669 101.906C563.669 101.906 559.416 107.007 563.936 109.738C564.477 110.046 565.082 110.174 565.682 110.107C566.282 110.04 566.855 109.78 567.335 109.358C569.509 107.517 575.548 111.698 584.304 113.869C584.304 113.869 618.432 154.819 626.369 147.878L621.995 124.452Z" fill="#FEC3BE"/>
<path d="M680.752 68.7775C680.752 68.7775 683.927 84.4215 680.752 95.4643L695.038 97.7648L707.737 90.403V80.7405C707.737 80.7405 701.784 66.0168 703.372 48.9924L680.752 68.7775Z" fill="#FEC3BE"/>
<path d="M721.203 407.864C721.203 407.864 731.556 431.33 729.934 446.974C728.312 462.618 743.426 448.814 741.839 439.612C740.553 432.17 746.282 400.602 748.516 388.859C748.758 387.59 748.585 386.262 748.03 385.133C747.475 384.003 746.579 383.153 745.514 382.748C740.743 380.927 732.755 378.697 728.743 382.107C722.817 387.159 721.203 407.864 721.203 407.864Z" fill="#8B416F"/>
<path d="M681.943 433.63C681.943 433.63 668.45 453.875 664.879 454.336C661.307 454.796 658.926 461.237 664.879 462.618C676.764 465.016 688.988 463.633 700.249 458.617C701.376 458.107 702.322 457.173 702.937 455.965C703.552 454.757 703.799 453.345 703.639 451.955L701.362 432.25L681.943 433.63Z" fill="#8B416F"/>
<path d="M659.72 218.766L646.78 220.766C648.556 238.291 648.504 256 646.624 273.51V336.526C646.624 336.526 646.374 342.077 656.312 350.149C666.734 358.55 676.777 367.564 686.403 377.156L722.411 413.325C722.411 413.325 736.697 393.08 734.713 381.117C734.713 381.117 710.903 372.375 707.728 358.111C705.908 349.949 696.677 343.107 689.12 338.806C684.37 336.131 680.551 331.652 678.299 326.114C676.047 320.575 675.497 314.31 676.741 308.358C677.182 306.29 677.864 304.302 678.768 302.447C685.117 289.564 694.244 260.576 694.244 260.576L676.784 221.986L659.72 218.766Z" fill="#4D4981"/>
<path opacity="0.05" d="M659.72 218.766L646.78 220.766C648.556 238.291 648.504 256 646.624 273.51V336.526C646.624 336.526 646.374 342.077 656.312 350.149C666.734 358.55 676.777 367.564 686.403 377.156L722.411 413.325C722.411 413.325 736.697 393.08 734.713 381.117C734.713 381.117 710.903 372.375 707.728 358.111C705.908 349.949 696.677 343.107 689.12 338.806C684.37 336.131 680.551 331.652 678.299 326.114C676.047 320.575 675.497 314.31 676.741 308.358C677.182 306.29 677.864 304.302 678.768 302.447C685.117 289.564 694.244 260.576 694.244 260.576L676.784 221.986L659.72 218.766Z" fill="black"/>
<path d="M678.768 435.041C678.768 435.041 702.181 439.642 702.975 442.403C703.769 445.163 702.975 438.722 702.975 438.722C702.975 438.722 716.467 391.33 713.327 349.469C710.187 307.608 717.295 279.991 717.295 279.991C717.295 279.991 725.629 248.703 720.867 230.759C716.105 212.814 666.104 220.636 666.104 220.636C666.104 220.636 683.564 268.028 683.168 290.574C683.168 290.574 685.152 358.671 688.723 366.493C688.689 366.453 683.133 433.17 678.768 435.041Z" fill="#4D4981"/>
<path d="M681.52 80.7406C681.52 80.7406 683.901 97.745 707.711 90.4031L691.872 230.269C691.872 230.269 645.839 232.109 646.236 225.668L655.726 141.016L681.52 80.7406Z" fill="white"/>
<path opacity="0.1" d="M682.141 79.8203C679.04 83.3595 675.001 85.5832 670.676 86.1319C666.725 86.483 662.885 87.806 659.409 90.0129C655.329 92.6636 650.783 96.5146 649.402 101.206C646.624 110.408 629.164 125.592 621.227 122.371L624.005 149.978C624.005 149.978 646.624 148.598 650.593 138.475L643.855 236.99H649.808C649.808 236.99 652.982 210.304 655.363 204.782C657.744 199.261 662.506 168.893 662.903 161.531C663.3 154.169 669.253 111.838 674.411 104.517L682.176 82.661L682.141 79.8203Z" fill="black"/>
<path opacity="0.1" d="M682.141 81.2007C678.595 84.4171 674.354 86.4414 669.882 87.0522C665.933 87.4108 662.096 88.7407 658.624 90.9532C654.544 93.6038 649.997 97.4548 648.617 102.146C645.839 111.348 628.379 126.532 620.442 123.311L623.22 150.918C623.22 150.918 645.839 149.538 649.808 139.416L643.061 237.871H649.014C649.014 237.871 652.189 211.184 654.57 205.662C656.951 200.141 661.713 169.773 662.11 162.411C662.506 155.049 668.459 112.719 673.618 105.397L682.141 83.9514V81.2007Z" fill="black"/>
<path d="M682.141 80.2804C678.595 83.4969 674.354 85.5211 669.882 86.1319C665.932 86.4829 662.091 87.806 658.616 90.0129C654.535 92.6635 649.989 96.5145 648.609 101.206C645.831 110.408 628.37 125.592 620.433 122.371L623.211 149.978C623.211 149.978 645.831 148.598 649.799 138.475L643.061 236.99H649.014C649.014 236.99 652.189 210.303 654.57 204.782C656.951 199.261 661.713 168.893 662.11 161.531C662.506 154.169 668.459 111.838 673.618 104.517L682.15 83.1211L682.141 80.2804Z" fill="#FD6F8D"/>
<path opacity="0.1" d="M702.38 62.5659C701.862 58.2048 702.897 55.4841 703.372 50.3728L680.752 70.1578C680.752 70.1578 681.296 72.8285 681.71 76.7395C682.851 76.9532 684.005 77.0603 685.16 77.0596C693.011 77.0596 698.661 69.9478 702.38 62.5659Z" fill="black"/>
<path d="M685.117 75.6892C696.952 75.6892 706.546 64.5652 706.546 50.8429C706.546 37.1207 696.952 25.9966 685.117 25.9966C673.282 25.9966 663.688 37.1207 663.688 50.8429C663.688 64.5652 673.282 75.6892 685.117 75.6892Z" fill="#FEC3BE"/>
<path opacity="0.1" d="M661.73 26.4868C661.592 22.2967 662.179 18.117 663.455 14.1936C663.101 14.8109 662.951 15.5561 663.033 16.2916C663.116 17.027 663.425 17.703 663.904 18.1947C664.595 13.9187 666.488 10.0284 669.287 7.13184C667.76 7.42191 666.975 9.61247 667.355 11.3529C667.87 13.0529 668.788 14.5503 670.003 15.674C669.874 13.0434 671.375 10.5827 673.273 9.14236C675.25 7.82538 677.41 6.91823 679.657 6.46167C678.886 6.77866 678.228 7.38232 677.785 8.17848C677.342 8.97463 677.138 9.91848 677.206 10.8628C677.213 11.1836 677.328 11.4887 677.526 11.713C677.741 11.8729 677.995 11.9499 678.25 11.9331C680.486 12.0329 682.724 11.9762 684.953 11.763C687.694 11.4053 690.451 11.235 693.209 11.2529C701.836 11.673 710.506 18.5047 712.438 28.2572C712.839 30.6235 713.05 33.0277 713.068 35.439L713.491 47.7522C713.736 51.3444 713.609 54.9579 713.111 58.5149C712.514 61.7987 711.299 64.8891 709.552 67.5656C707.806 70.2421 705.572 72.4388 703.009 73.9989C699.895 68.7675 699.619 62.0458 698.541 55.8142C698.37 54.3762 697.909 53.0052 697.195 51.8132C696.826 51.2238 696.308 50.7821 695.713 50.5491C695.118 50.3161 694.475 50.3035 693.874 50.5129C692.709 51.053 692.209 53.1135 693.175 54.0338C692.312 55.2141 690.699 54.3339 689.724 53.2836C687.002 50.2892 685.128 46.4071 684.35 42.1508C683.961 40.0102 683.573 37.3695 681.761 36.6394C681.138 36.4408 680.487 36.3897 679.846 36.4893C676.068 36.7894 670.158 38.5999 666.501 37.2095C663.145 35.9392 661.73 30.1777 661.73 26.4868Z" fill="black"/>
<path d="M662.127 26.0267C661.989 21.8366 662.576 17.6569 663.852 13.7336C663.498 14.3508 663.348 15.096 663.43 15.8315C663.513 16.5669 663.822 17.2429 664.301 17.7346C664.992 13.4586 666.885 9.56836 669.684 6.67176C668.157 6.96183 667.372 9.15239 667.751 10.8928C668.267 12.5928 669.185 14.0902 670.4 15.2139C670.271 12.5833 671.772 10.1226 673.67 8.68226C675.647 7.36528 677.807 6.45814 680.053 6.00159C679.283 6.31858 678.625 6.92224 678.182 7.71839C677.739 8.51455 677.535 9.4584 677.603 10.4027C677.61 10.7235 677.725 11.0286 677.923 11.2529C678.138 11.4128 678.392 11.4898 678.647 11.473C680.882 11.5728 683.121 11.5161 685.35 11.3029C688.091 10.9452 690.848 10.7749 693.606 10.7928C702.233 11.2129 710.903 18.0446 712.835 27.7971C713.236 30.1634 713.447 32.5676 713.465 34.9789L713.888 47.2921C714.133 50.8844 714.006 54.4978 713.508 58.0548C712.911 61.3386 711.695 64.429 709.949 67.1055C708.203 69.782 705.969 71.9787 703.406 73.5388C700.292 68.3074 700.016 61.5857 698.937 55.3541C698.767 53.9161 698.306 52.5451 697.592 51.3531C697.223 50.7638 696.705 50.322 696.11 50.089C695.515 49.856 694.872 49.8434 694.27 50.0528C693.106 50.5929 692.605 52.6535 693.572 53.5737C692.709 54.754 691.096 53.8738 690.121 52.8235C687.398 49.8291 685.524 45.947 684.746 41.6907C684.358 39.5501 683.97 36.9095 682.158 36.1793C681.535 35.9807 680.884 35.9297 680.243 36.0292C676.465 36.3293 670.555 38.1398 666.897 36.7494C663.542 35.4691 662.127 29.7176 662.127 26.0267Z" fill="#784F69"/>
<path opacity="0.1" d="M619.407 122.381C619.407 122.381 616.232 139.385 622.185 149.988L625.558 149.668L623.72 122.661L619.407 122.381Z" fill="black"/>
<path d="M620.269 122.381C620.269 122.381 617.095 139.385 623.047 149.988L626.42 149.668L624.583 122.661L620.269 122.381Z" fill="#FD6F8D"/>
<path opacity="0.1" d="M705.554 75.9493L731.15 101.486C731.15 101.486 746.23 119.43 739.881 148.418C739.881 148.418 737.103 190.749 733.928 192.589C733.928 192.589 722.817 218.356 722.023 242.742C722.023 242.742 707.142 208.003 700.395 229.168C693.649 250.334 677.966 253.324 677.966 253.324L686.696 128.133C686.696 128.133 708.729 83.7313 705.554 75.9493Z" fill="black"/>
<path d="M706.348 75.9493L731.944 101.486C731.944 101.486 747.023 119.43 740.674 148.418C740.674 148.418 737.896 190.749 734.722 192.589C734.722 192.589 723.61 218.356 722.817 242.742C722.817 242.742 707.142 206.162 700.387 227.328C693.632 248.493 678.759 253.334 678.759 253.334L687.49 128.193C687.49 128.193 709.523 83.7313 706.348 75.9493Z" fill="#FD6F8D"/>
<path d="M718.055 183.807C718.055 183.807 724.404 178.746 734.722 192.549L709.324 245.923L700.792 230.989C700.792 230.989 718.848 189.788 718.055 183.807Z" fill="#FEC3BE"/>
<path opacity="0.1" d="M711.904 186.798C711.904 186.798 725.948 205.082 731.426 202.151L736.499 188.458L717.459 178.976L711.904 186.798Z" fill="black"/>
<path d="M711.904 185.877C711.904 185.877 725.948 204.162 731.426 201.231L736.499 187.538L717.459 178.055L711.904 185.877Z" fill="#FD6F8D"/>
<path opacity="0.1" d="M701.655 227.498C701.655 227.498 708.341 243.382 711.904 244.302L706.727 251.204L699.188 234.64L701.655 227.498Z" fill="black"/>
<path d="M701.258 227.988C701.258 227.988 707.944 243.872 711.507 244.792L706.331 251.694L698.774 235.1L701.258 227.988Z" fill="#4D4981"/>
<path opacity="0.1" d="M713.888 129.743C713.888 129.743 714.682 162.871 711.507 175.295L713.888 129.743Z" fill="black"/>
<path opacity="0.1" d="M649.601 136.185C649.601 136.185 654.363 134.344 654.363 129.743L649.601 136.185Z" fill="black"/>
<path d="M71.3353 141.726C71.3353 141.726 48.7157 195.98 63.5711 260.186C78.4265 324.393 73.7077 401.222 58.8954 420.227" stroke="#535461" stroke-width="2" stroke-miterlimit="10"/>
<path d="M71.3353 148.968C74.7801 148.968 77.5725 145.73 77.5725 141.736C77.5725 137.742 74.7801 134.504 71.3353 134.504C67.8906 134.504 65.0981 137.742 65.0981 141.736C65.0981 145.73 67.8906 148.968 71.3353 148.968Z" fill="#02C4D0"/>
<path d="M61.932 176.625C61.932 176.625 85.3797 181.526 91.6169 171.624" stroke="#535461" stroke-width="2" stroke-miterlimit="10"/>
<path d="M59.7063 192.379C59.7063 192.379 45.6014 174.284 46.3778 163.432" stroke="#535461" stroke-width="2" stroke-miterlimit="10"/>
<path d="M58.5072 225.527C58.5072 225.527 71.3353 229.448 83.0419 200.521" stroke="#535461" stroke-width="2" stroke-miterlimit="10"/>
<path d="M61.932 249.634C61.932 249.634 30.0127 225.818 33.9034 210.454" stroke="#535461" stroke-width="2" stroke-miterlimit="10"/>
<path d="M66.9183 276.891C66.9183 276.891 89.2791 253.885 86.9412 231.249" stroke="#535461" stroke-width="2" stroke-miterlimit="10"/>
<path d="M69.3512 292.915C69.3512 292.915 40.8826 283.692 41.7453 269.229" stroke="#535461" stroke-width="2" stroke-miterlimit="10"/>
<path d="M71.3353 312.009C71.3353 312.009 89.2705 292.744 91.6084 281.001" stroke="#535461" stroke-width="2" stroke-miterlimit="10"/>
<path d="M72.5862 344.768C72.5862 344.768 54.1852 319.861 53.4001 307.208" stroke="#535461" stroke-width="2" stroke-miterlimit="10"/>
<path d="M72.5862 365.383C72.5862 365.383 93.1784 338.856 94.7313 326.203" stroke="#535461" stroke-width="2" stroke-miterlimit="10"/>
<path d="M46.3778 172.474C49.8225 172.474 52.615 169.236 52.615 165.242C52.615 161.248 49.8225 158.01 46.3778 158.01C42.9331 158.01 40.1406 161.248 40.1406 165.242C40.1406 169.236 42.9331 172.474 46.3778 172.474Z" fill="#02C4D0"/>
<path d="M39.3643 276.46C42.809 276.46 45.6015 273.223 45.6015 269.229C45.6015 265.235 42.809 261.997 39.3643 261.997C35.9196 261.997 33.1271 265.235 33.1271 269.229C33.1271 273.223 35.9196 276.46 39.3643 276.46Z" fill="#02C4D0"/>
<path d="M33.9035 217.685C37.3482 217.685 40.1407 214.448 40.1407 210.454C40.1407 206.459 37.3482 203.222 33.9035 203.222C30.4587 203.222 27.6663 206.459 27.6663 210.454C27.6663 214.448 30.4587 217.685 33.9035 217.685Z" fill="#02C4D0"/>
<path d="M91.617 178.805C95.0617 178.805 97.8542 175.568 97.8542 171.574C97.8542 167.58 95.0617 164.342 91.617 164.342C88.1722 164.342 85.3798 167.58 85.3798 171.574C85.3798 175.568 88.1722 178.805 91.617 178.805Z" fill="#02C4D0"/>
<path d="M91.617 290.024C95.0617 290.024 97.8542 286.786 97.8542 282.792C97.8542 278.798 95.0617 275.56 91.617 275.56C88.1722 275.56 85.3798 278.798 85.3798 282.792C85.3798 286.786 88.1722 290.024 91.617 290.024Z" fill="#02C4D0"/>
<path d="M81.4805 207.743C84.9252 207.743 87.7177 204.505 87.7177 200.511C87.7177 196.517 84.9252 193.279 81.4805 193.279C78.0358 193.279 75.2433 196.517 75.2433 200.511C75.2433 204.505 78.0358 207.743 81.4805 207.743Z" fill="#02C4D0"/>
<path d="M93.9549 337.956C97.3996 337.956 100.192 334.718 100.192 330.724C100.192 326.73 97.3996 323.492 93.9549 323.492C90.5101 323.492 87.7177 326.73 87.7177 330.724C87.7177 334.718 90.5101 337.956 93.9549 337.956Z" fill="#02C4D0"/>
<path d="M51.8386 318.961C55.2834 318.961 58.0758 315.723 58.0758 311.729C58.0758 307.735 55.2834 304.498 51.8386 304.498C48.3939 304.498 45.6014 307.735 45.6014 311.729C45.6014 315.723 48.3939 318.961 51.8386 318.961Z" fill="#02C4D0"/>
<path d="M87.7177 238.481C91.1624 238.481 93.9549 235.243 93.9549 231.249C93.9549 227.255 91.1624 224.017 87.7177 224.017C84.273 224.017 81.4805 227.255 81.4805 231.249C81.4805 235.243 84.273 238.481 87.7177 238.481Z" fill="#02C4D0"/>
</g>
<defs>
<linearGradient id="paint0_linear" x1="384.852" y1="421.407" x2="384.852" y2="55.5641" gradientUnits="userSpaceOnUse">
<stop stop-color="#808080" stop-opacity="0.25"/>
<stop offset="0.54" stop-color="#808080" stop-opacity="0.12"/>
<stop offset="1" stop-color="#808080" stop-opacity="0.1"/>
</linearGradient>
<linearGradient id="paint1_linear" x1="175969" y1="301806" x2="175969" y2="82074.6" gradientUnits="userSpaceOnUse">
<stop stop-color="#808080" stop-opacity="0.25"/>
<stop offset="0.54" stop-color="#808080" stop-opacity="0.12"/>
<stop offset="1" stop-color="#808080" stop-opacity="0.1"/>
</linearGradient>
<clipPath id="clip0">
<rect width="823" height="550" fill="white"/>
</clipPath>
</defs>
</svg>
