<svg width="41" height="38" viewBox="0 0 41 38" fill="none" xmlns="http://www.w3.org/2000/svg">
<path d="M21.2562 6.0551C21.1333 5.93747 20.9697 5.87183 20.7995 5.87183C20.6294 5.87183 20.4658 5.93747 20.3428 6.0551L5.13811 20.5801C5.07354 20.6419 5.02217 20.7161 4.98711 20.7983C4.95204 20.8805 4.93402 20.9689 4.93412 21.0583L4.93164 34.6905C4.93164 35.3914 5.21008 36.0636 5.70572 36.5593C6.20135 37.0549 6.87357 37.3333 7.5745 37.3333H15.5113C15.8618 37.3333 16.1979 37.1941 16.4457 36.9463C16.6935 36.6985 16.8328 36.3624 16.8328 36.0119V24.7798C16.8328 24.6045 16.9024 24.4365 17.0263 24.3126C17.1502 24.1886 17.3182 24.119 17.4935 24.119H24.1006C24.2759 24.119 24.4439 24.1886 24.5678 24.3126C24.6917 24.4365 24.7613 24.6045 24.7613 24.7798V36.0119C24.7613 36.3624 24.9006 36.6985 25.1484 36.9463C25.3962 37.1941 25.7323 37.3333 26.0828 37.3333H34.0163C34.7172 37.3333 35.3894 37.0549 35.8851 36.5593C36.3807 36.0636 36.6592 35.3914 36.6592 34.6905V21.0583C36.6593 20.9689 36.6412 20.8805 36.6062 20.7983C36.5711 20.7161 36.5197 20.6419 36.4552 20.5801L21.2562 6.0551Z" fill="#02C4D0"/>
<path d="M40.1976 17.8546L34.0199 11.9445V2.97611C34.0199 2.62565 33.8807 2.28953 33.6329 2.04172C33.3851 1.7939 33.049 1.65468 32.6985 1.65468H28.7342C28.3838 1.65468 28.0477 1.7939 27.7998 2.04172C27.552 2.28953 27.4128 2.62565 27.4128 2.97611V5.61897L22.6292 1.04517C22.1816 0.592582 21.5159 0.333252 20.7966 0.333252C20.0797 0.333252 19.4157 0.592582 18.968 1.046L1.40129 17.8529C0.887584 18.3485 0.823165 19.1636 1.29062 19.7004C1.40801 19.8359 1.55174 19.9461 1.71306 20.0243C1.87439 20.1025 2.04994 20.1471 2.22903 20.1553C2.40812 20.1635 2.58701 20.1351 2.7548 20.072C2.92259 20.0088 3.07578 19.9122 3.20504 19.788L20.3423 3.41218C20.4653 3.29456 20.6289 3.22891 20.799 3.22891C20.9692 3.22891 21.1328 3.29456 21.2558 3.41218L38.3947 19.788C38.6472 20.0301 38.9853 20.1622 39.3351 20.1554C39.6848 20.1486 40.0175 20.0034 40.2604 19.7517C40.7675 19.2264 40.7254 18.3592 40.1976 17.8546Z" fill="#02C4D0"/>
</svg>
