<svg width="47" height="55" viewBox="0 0 47 55" fill="none" xmlns="http://www.w3.org/2000/svg">
<path d="M37.2035 28.2661C37.0379 28.1135 36.8407 27.9925 36.6234 27.9101C36.4062 27.8277 36.1731 27.7856 35.9379 27.7862H34.6743V25.0669C34.6738 24.6343 34.4854 24.2196 34.1504 23.9137C33.8154 23.6078 33.3613 23.4358 32.8876 23.4353H7.17506C5.78054 23.4353 4.44314 23.9412 3.45707 24.8416C2.47099 25.7421 1.91701 26.9633 1.91699 28.2368V46.9149C1.91701 48.1883 2.47099 49.4095 3.45707 50.31C4.44314 51.2104 5.78054 51.7163 7.17506 51.7163H35.8675C36.3401 51.7155 36.7932 51.544 37.1279 51.2394C37.4626 50.9347 37.6518 50.5215 37.6543 50.09L37.7245 29.4234C37.726 29.2086 37.6807 28.9957 37.5913 28.797C37.5018 28.5983 37.37 28.4179 37.2035 28.2661ZM35.2738 49.5409H7.17506C6.41237 49.5409 5.68092 49.2642 5.14162 48.7717C4.60232 48.2793 4.29934 47.6113 4.29934 46.9149V28.2368C4.29934 27.5403 4.60232 26.8724 5.14162 26.3799C5.68092 25.8874 6.41237 25.6108 7.17506 25.6108H32.292V27.7862H7.27728V29.9617H35.3404L35.2738 49.5409Z" fill="black"/>
<path d="M29.314 39.7511C29.314 38.5497 30.288 37.5757 31.4894 37.5757H31.9032C33.1047 37.5757 34.0787 38.5497 34.0787 39.7511C34.0787 40.9526 33.1047 41.9266 31.9032 41.9266H31.4894C30.288 41.9266 29.314 40.9526 29.314 39.7511Z" fill="black"/>
<path d="M23.7969 21.0881L39.1777 7.04297" stroke="black" stroke-width="2" stroke-linecap="round" stroke-linejoin="round"/>
<path d="M23.7969 9.38379V21.088H36.6142" stroke="black" stroke-width="2" stroke-linecap="round" stroke-linejoin="round"/>
</svg>
