<svg width="52" height="52" viewBox="0 0 52 52" fill="none" xmlns="http://www.w3.org/2000/svg">
<path fill-rule="evenodd" clip-rule="evenodd" d="M26 31.2C31.7438 31.2 36.4 26.5438 36.4 20.8C36.4 15.0562 31.7438 10.4 26 10.4C20.2562 10.4 15.6 15.0562 15.6 20.8C15.6 26.5438 20.2562 31.2 26 31.2ZM26 26C28.8719 26 31.2 23.6719 31.2 20.8C31.2 17.9281 28.8719 15.6 26 15.6C23.1281 15.6 20.8 17.9281 20.8 20.8C20.8 23.6719 23.1281 26 26 26Z" fill="#2E3A59"/>
<path fill-rule="evenodd" clip-rule="evenodd" d="M41.4079 46.9448C47.8322 42.2109 52 34.5922 52 26C52 11.6406 40.3594 0 26 0C11.6406 0 0 11.6406 0 26C0 34.5922 4.16784 42.2109 10.5921 46.9448C10.7103 47.0319 10.8292 47.118 10.9489 47.2031C12.1159 48.033 13.3544 48.769 14.6533 49.4C18.0821 51.0657 21.9319 52 26 52C30.0681 52 33.9179 51.0657 37.3467 49.4C37.4164 49.3661 37.4859 49.332 37.5553 49.2975C38.9109 48.6239 40.1993 47.8354 41.4079 46.9448ZM39.5947 41.7429C44.0076 37.9288 46.8 32.2905 46.8 26C46.8 14.5125 37.4875 5.2 26 5.2C14.5125 5.2 5.2 14.5125 5.2 26C5.2 32.2905 7.99244 37.9288 12.4053 41.7429C15.0817 37.0014 20.167 33.8 26 33.8C31.833 33.8 36.9183 37.0014 39.5947 41.7429ZM35.2474 44.6365C33.5194 41.2888 30.027 39 26 39C21.973 39 18.4806 41.2888 16.7526 44.6365C19.5381 46.0213 22.6781 46.8 26 46.8C29.3219 46.8 32.4618 46.0213 35.2474 44.6365Z" fill="#2E3A59"/>
</svg>
