<svg width="103" height="61" viewBox="0 0 103 61" fill="none" xmlns="http://www.w3.org/2000/svg">
<path d="M31.2784 26.7404H37.8116V22.9808H34.0783V21.1011H30.3451V23.0748C29.211 23.3067 28.2029 23.9547 27.5165 24.893C26.8302 25.8314 26.5145 26.993 26.6308 28.1525C26.7471 29.312 27.2871 30.3867 28.1459 31.1678C29.0048 31.9489 30.1212 32.3808 31.2784 32.3796H33.145C33.3926 32.3796 33.63 32.4787 33.805 32.6549C33.98 32.8312 34.0783 33.0702 34.0783 33.3195C34.0783 33.5688 33.98 33.8079 33.805 33.9841C33.63 34.1604 33.3926 34.2594 33.145 34.2594H26.6119V38.0189H30.3451V39.8987H34.0783V37.9249C35.2125 37.693 36.2205 37.045 36.9069 36.1067C37.5933 35.1684 37.9089 34.0067 37.7926 32.8472C37.6763 31.6877 37.1364 30.6131 36.2775 29.832C35.4187 29.0508 34.3023 28.6189 33.145 28.6201H31.2784C31.0309 28.6201 30.7935 28.5211 30.6185 28.3448C30.4434 28.1686 30.3451 27.9295 30.3451 27.6802C30.3451 27.431 30.4434 27.1919 30.6185 27.0156C30.7935 26.8394 31.0309 26.7404 31.2784 26.7404Z" fill="#F20B0B"/>
<path d="M54.611 24.8607H50.8405C50.7868 23.3756 50.4311 21.9173 49.7954 20.5761C49.1597 19.235 48.2575 18.0394 47.1446 17.0635V9.82263C47.1446 9.47354 47.048 9.13134 46.8658 8.83438C46.6835 8.53743 46.4228 8.29744 46.1127 8.14132C45.8027 7.9852 45.4556 7.91912 45.1103 7.95047C44.7651 7.98182 44.4353 8.10937 44.158 8.31882L37.1899 13.5822H28.4784C18.1934 13.5822 10.8146 19.6745 9.90932 28.6202H9.81225C9.31719 28.6202 8.84241 28.4222 8.49235 28.0697C8.1423 27.7171 7.94563 27.239 7.94563 26.7405V22.981H4.2124V26.7405C4.21388 28.2357 4.80434 29.6692 5.8542 30.7264C6.90405 31.7837 8.32753 32.3783 9.81225 32.3798H9.94291C10.2136 34.8446 11.0091 37.2217 12.2751 39.3488C13.541 41.4759 15.2477 43.3029 17.2787 44.7054V51.1774C17.2787 51.6759 17.4754 52.154 17.8254 52.5066C18.1755 52.8591 18.6503 53.0571 19.1453 53.0571H26.6118C27.1069 53.0571 27.5816 52.8591 27.9317 52.5066C28.2818 52.154 28.4784 51.6759 28.4784 51.1774V47.4178H34.0783V51.1774C34.0783 51.6759 34.2749 52.154 34.625 52.5066C34.975 52.8591 35.4498 53.0571 35.9449 53.0571H43.4113C43.9064 53.0571 44.3812 52.8591 44.7312 52.5066C45.0813 52.154 45.278 51.6759 45.278 51.1774V44.8557C46.6263 44.212 47.8052 43.2577 48.7194 42.07C49.6335 40.8823 50.2572 39.4945 50.5399 38.019H54.611C55.1061 38.019 55.5809 37.821 55.9309 37.4685C56.281 37.116 56.4777 36.6378 56.4777 36.1393V26.7405C56.4777 26.2419 56.281 25.7638 55.9309 25.4113C55.5809 25.0588 55.1061 24.8607 54.611 24.8607ZM52.7444 34.2595H47.376C46.8067 39.4345 45.8379 40.8105 41.5447 42.3707V49.2976H37.8115V43.6583H24.7452V49.2976H21.0119V42.4891C18.7644 41.4123 16.8682 39.7125 15.5458 37.589C14.2233 35.4656 13.5295 33.0065 13.5455 30.5C13.5455 21.4114 21.0455 17.3417 28.4784 17.3417H38.4331L43.4113 13.5822V18.8004C47.9248 22.2967 46.9822 24.7893 47.1782 28.6202H52.7444V34.2595Z" fill="#F20B0B"/>
<path fill-rule="evenodd" clip-rule="evenodd" d="M75.7849 10.8766C75.4897 11.174 75.4897 11.6561 75.7849 11.9534L91.0292 27.3054C91.3244 27.6028 91.8032 27.6028 92.0984 27.3054C92.3937 27.008 92.3937 26.5259 92.0984 26.2286L76.8542 10.8766C76.5589 10.5792 76.0802 10.5792 75.7849 10.8766Z" fill="#F20B0B"/>
<path fill-rule="evenodd" clip-rule="evenodd" d="M60.5405 27.3054C60.8358 27.6028 61.3146 27.6028 61.6098 27.3054L76.8541 11.9534C77.1493 11.6561 77.1493 11.174 76.8541 10.8766C76.5588 10.5792 76.0801 10.5792 75.7848 10.8766L60.5406 26.2286C60.2453 26.5259 60.2453 27.008 60.5405 27.3054Z" fill="#F20B0B"/>
<path fill-rule="evenodd" clip-rule="evenodd" d="M76.3196 11.75C75.902 11.75 75.5635 12.0909 75.5635 12.5115V42.1188C75.5635 42.5394 75.902 42.8803 76.3196 42.8803C76.7372 42.8803 77.0757 42.5394 77.0757 42.1188V12.5115C77.0757 12.0909 76.7372 11.75 76.3196 11.75Z" fill="#F20B0B"/>
<path fill-rule="evenodd" clip-rule="evenodd" d="M55.9636 50.8916C55.9636 51.3121 56.3021 51.653 56.7197 51.653H95.9192C96.3368 51.653 96.6753 51.3121 96.6753 50.8916C96.6753 50.471 96.3368 50.1301 95.9192 50.1301H56.7197C56.3021 50.1301 55.9636 50.471 55.9636 50.8916Z" fill="#F20B0B"/>
</svg>
